<svg xmlns="http://www.w3.org/2000/svg"><symbol id="instagram" viewBox="0 0 24 24"><path d="M12 1.5H7.7a6.3 6.3 0 0 0-2.6.5 4.1 4.1 0 0 0-1.8 1.3 4.1 4.1 0 0 0-1.2 1.8 6.3 6.3 0 0 0-.5 2.6 40.4 40.4 0 0 0-.1 4.3 40.4 40.4 0 0 0 .1 4.3 6.3 6.3 0 0 0 .5 2.6 4.1 4.1 0 0 0 1.2 1.8 4.1 4.1 0 0 0 1.8 1.2 6.3 6.3 0 0 0 2.6.5h8.6a6.3 6.3 0 0 0 2.6-.5 4.1 4.1 0 0 0 1.8-1.2 4.1 4.1 0 0 0 1.2-1.8 6.3 6.3 0 0 0 .5-2.6 40.4 40.4 0 0 0 .1-4.3 40.4 40.4 0 0 0-.1-4.3 6.3 6.3 0 0 0-.5-2.6 4.1 4.1 0 0 0-1.2-1.8 4.1 4.1 0 0 0-1.8-1.2 6.3 6.3 0 0 0-2.6-.5zm0 1.9h4.2a6.3 6.3 0 0 1 2 .3 3.2 3.2 0 0 1 1.2.8 3.2 3.2 0 0 1 .8 1.2 6.3 6.3 0 0 1 .3 2 38.1 38.1 0 0 1 .1 4.2 38.1 38.1 0 0 1-.1 4.2 6.3 6.3 0 0 1-.3 2 3.7 3.7 0 0 1-2 2 6.3 6.3 0 0 1-2 .3H7.8a6.3 6.3 0 0 1-2-.3 3.2 3.2 0 0 1-1.2-.8 3.2 3.2 0 0 1-.8-1.2 6.3 6.3 0 0 1-.3-2 38.1 38.1 0 0 1-.1-4.1 38.1 38.1 0 0 1 .1-4.2 6.3 6.3 0 0 1 .3-2 3.2 3.2 0 0 1 .8-1.2 3.2 3.2 0 0 1 1.2-.8 6.3 6.3 0 0 1 2-.3H12"/><path d="M12 15.5a3.5 3.5 0 1 1 3.5-3.5 3.5 3.5 0 0 1-3.5 3.5zm0-8.9a5.4 5.4 0 1 0 5.4 5.4A5.4 5.4 0 0 0 12 6.6zm6.9-.2a1.3 1.3 0 1 1-1.3-1.3 1.3 1.3 0 0 1 1.3 1.3z"/></symbol><symbol id="search" viewBox="0 0 24 24"><path d="M15.5 14h-.8l-.3-.3A6.3 6.3 0 0 0 16 9.5 6.5 6.5 0 1 0 9.5 16a6.3 6.3 0 0 0 4.2-1.6l.3.3v.8l5 5 1.5-1.5zm-6 0A4.5 4.5 0 1 1 14 9.5 4.5 4.5 0 0 1 9.5 14z"/></symbol><symbol id="twitter" viewBox="0 0 24 24"><path d="M7.9 20.9A12.7 12.7 0 0 0 20.7 8.1v-.6A8.4 8.4 0 0 0 23 5.2a8.4 8.4 0 0 1-2.6.7 4.1 4.1 0 0 0 1.9-2.5 6.9 6.9 0 0 1-2.8 1.1 4.6 4.6 0 0 0-6.4-.2 4.9 4.9 0 0 0-1.3 4.3 12.6 12.6 0 0 1-9.2-4.7 4.5 4.5 0 0 0 1.4 6 4.6 4.6 0 0 1-2.1-.5 4.4 4.4 0 0 0 3.6 4.4 4.4 4.4 0 0 1-2 .1A4.5 4.5 0 0 0 7.7 17a8.8 8.8 0 0 1-5.6 1.9H1a13.2 13.2 0 0 0 6.9 2"/></symbol><symbol id="facebook" viewBox="0 0 24 24"><path d="M21.3 1.5H2.7a1.2 1.2 0 0 0-1.2 1.2v18.6a1.2 1.2 0 0 0 1.2 1.2h10v-8.1H10v-3.2h2.7V8.9a3.9 3.9 0 0 1 4.1-4.2h2.4v2.9h-1.6c-1.4 0-1.6.7-1.6 1.6v2h3.1l-.4 3.2H16v8.1h5.3a1.2 1.2 0 0 0 1.2-1.2V2.7a1.2 1.2 0 0 0-1.2-1.2z"/></symbol><symbol id="cart" viewBox="0 0 24 24"><path d="M7 18a2 2 0 1 0 2 2 2 2 0 0 0-2-2zM1 2v2h2l3.6 7.6L5.2 14a3 3 0 0 0-.2 1 2 2 0 0 0 2 2h12v-2H7.4l-.2-.2v-.2l.9-1.6h7.5a1.9 1.9 0 0 0 1.7-1l3.6-6.5A.9.9 0 0 0 21 5a1.1 1.1 0 0 0-1-1H5.2l-.9-2zm16 16a2 2 0 1 0 2 2 2 2 0 0 0-2-2z"/></symbol><symbol id="menu-close" viewBox="0 0 24 24"><path d="M19 6.4L17.6 5 12 10.6 6.4 5 5 6.4l5.6 5.6L5 17.6 6.4 19l5.6-5.6 5.6 5.6 1.4-1.4-5.6-5.6z"/></symbol><symbol id="account" viewBox="0 0 24 24"><path d="M12 12a4 4 0 1 0-4-4 4 4 0 0 0 4 4zm0 2c-2.7 0-8 1.3-8 4v2h16v-2c0-2.7-5.3-4-8-4z"/></symbol><symbol id="menu" viewBox="0 0 24 24"><path d="M3 18h18v-2H3zm0-5h18v-2H3zm0-7v2h18V6z"/></symbol></svg>