<?xml version="1.0" encoding="utf-8"?>
<!-- Generator: Adobe Illustrator 24.1.0, SVG Export Plug-In . SVG Version: 6.00 Build 0)  -->
<svg version="1.1" id="Layer_1" xmlns="http://www.w3.org/2000/svg" xmlns:xlink="http://www.w3.org/1999/xlink" x="0px" y="0px"
	 viewBox="0 0 16 16" style="enable-background:new 0 0 16 16;" xml:space="preserve">
<style type="text/css">
	.st0{fill:#231F20;}
</style>
<g>
	<g>
		<g>
			<ellipse class="st0" cx="8" cy="8.2" rx="2.9" ry="3.8"/>
		</g>
		<path class="st0" d="M14.3,8.3H12c-0.1,2.6-1.8,4.7-4,4.7S4.1,11,4,8.3H1.7c0,0,0,0,0,0v6.8c0,0,0,0,0,0h12.7c0,0,0,0,0,0
			L14.3,8.3C14.3,8.3,14.3,8.3,14.3,8.3z"/>
		<g>
			<path class="st0" d="M2.7,6.9c0.1,0,0.2,0,0.3,0l0.5,0.3c0.1,0,0.1,0,0.1-0.1L3.4,6.6c0-0.1,0-0.2,0.1-0.2l0.4-0.4
				c0.1-0.1,0-0.1,0-0.1L3.3,5.7c-0.1,0-0.2-0.1-0.2-0.2L2.9,5.1c0-0.1-0.1-0.1-0.1,0L2.5,5.6c0,0.1-0.1,0.1-0.2,0.2L1.7,5.8
				c-0.1,0-0.1,0.1,0,0.1l0.4,0.4c0.1,0.1,0.1,0.2,0.1,0.2L2.1,7.1c0,0.1,0,0.1,0.1,0.1L2.7,6.9z"/>
		</g>
		<g>
			<path class="st0" d="M4.6,3.6c0.1,0,0.2,0,0.3,0L5,3.7c0.1,0,0.1,0,0.1-0.1l0-0.2c0-0.1,0-0.2,0.1-0.2l0.1-0.1C5.4,3,5.4,3,5.3,3
				l-0.2,0C5,2.9,4.9,2.8,4.9,2.8L4.8,2.6c0-0.1-0.1-0.1-0.1,0L4.6,2.8c0,0.1-0.1,0.1-0.2,0.2L4.1,3C4.1,3,4,3,4.1,3.1l0.1,0.1
				c0.1,0.1,0.1,0.2,0.1,0.2l0,0.2c0,0.1,0,0.1,0.1,0.1L4.6,3.6z"/>
		</g>
		<g>
			<path class="st0" d="M11.2,3.6c0.1,0,0.2,0,0.3,0l0.2,0.1c0.1,0,0.1,0,0.1-0.1l0-0.2c0-0.1,0-0.2,0.1-0.2l0.1-0.1
				C12,3,11.9,3,11.9,3l-0.2,0c-0.1,0-0.2-0.1-0.2-0.2l-0.1-0.2c0-0.1-0.1-0.1-0.1,0l-0.1,0.2c0,0.1-0.1,0.1-0.2,0.2l-0.2,0
				c-0.1,0-0.1,0.1,0,0.1l0.1,0.1c0.1,0.1,0.1,0.2,0.1,0.2l0,0.2c0,0.1,0,0.1,0.1,0.1L11.2,3.6z"/>
		</g>
		<g>
			<path class="st0" d="M7.9,3c0.1,0,0.2,0,0.3,0l0.5,0.3c0.1,0,0.1,0,0.1-0.1L8.6,2.6c0-0.1,0-0.2,0.1-0.2L9.1,2
				c0.1-0.1,0-0.1,0-0.1L8.5,1.8c-0.1,0-0.2-0.1-0.2-0.2L8.1,1.1c0-0.1-0.1-0.1-0.1,0L7.7,1.6c0,0.1-0.1,0.1-0.2,0.2L6.9,1.9
				c-0.1,0-0.1,0.1,0,0.1l0.4,0.4c0.1,0.1,0.1,0.2,0.1,0.2L7.3,3.1c0,0.1,0,0.1,0.1,0.1L7.9,3z"/>
		</g>
		<g>
			<path class="st0" d="M13.1,6.9c0.1,0,0.2,0,0.3,0l0.5,0.3c0.1,0,0.1,0,0.1-0.1l-0.1-0.5c0-0.1,0-0.2,0.1-0.2l0.4-0.4
				c0.1-0.1,0-0.1,0-0.1l-0.5-0.1c-0.1,0-0.2-0.1-0.2-0.2l-0.2-0.5c0-0.1-0.1-0.1-0.1,0l-0.2,0.5c0,0.1-0.1,0.1-0.2,0.2l-0.5,0.1
				c-0.1,0-0.1,0.1,0,0.1l0.4,0.4c0.1,0.1,0.1,0.2,0.1,0.2l-0.1,0.5c0,0.1,0,0.1,0.1,0.1L13.1,6.9z"/>
		</g>
	</g>
</g>
</svg>
