<?xml version="1.0" encoding="utf-8"?>
<!-- Generator: Adobe Illustrator 24.1.0, SVG Export Plug-In . SVG Version: 6.00 Build 0)  -->
<svg version="1.1" id="Layer_1" xmlns="http://www.w3.org/2000/svg" xmlns:xlink="http://www.w3.org/1999/xlink" x="0px" y="0px"
	 viewBox="0 0 64 64" style="enable-background:new 0 0 64 64;" xml:space="preserve">
<style type="text/css">
	.st0{fill:#231F20;}
</style>
<g>
	<g>
		<g>
			<ellipse class="st0" cx="32" cy="25.8" rx="10" ry="12.9"/>
		</g>
		<path class="st0" d="M53.6,26.2h-8c-0.2,8.9-6.2,16.1-13.6,16.1s-13.4-7.1-13.6-16.1h-8c0,0,0,0,0,0v23.2c0,0,0,0,0,0h43.1
			c0,0,0,0,0,0L53.6,26.2C53.6,26.2,53.6,26.2,53.6,26.2z"/>
		<g>
			<path class="st0" d="M13.9,21.4c0.2-0.1,0.6-0.1,0.9,0l1.6,0.9c0.2,0.1,0.4,0,0.4-0.3l-0.3-1.8c0-0.3,0.1-0.6,0.3-0.8L18,18
				c0.2-0.2,0.1-0.4-0.1-0.4l-1.8-0.3c-0.3,0-0.6-0.3-0.7-0.5l-0.8-1.7c-0.1-0.2-0.3-0.2-0.4,0l-0.8,1.7c-0.1,0.2-0.4,0.5-0.7,0.5
				l-1.8,0.3c-0.3,0-0.3,0.2-0.1,0.4l1.3,1.3c0.2,0.2,0.3,0.6,0.3,0.8L11.9,22c0,0.3,0.1,0.4,0.4,0.3L13.9,21.4z"/>
		</g>
		<g>
			<path class="st0" d="M20.4,10.3c0.2-0.1,0.6-0.1,0.9,0l0.6,0.3c0.2,0.1,0.4,0,0.4-0.3l-0.1-0.7c0-0.3,0.1-0.6,0.3-0.8l0.5-0.5
				C23.1,8.2,23,8,22.8,8l-0.7-0.1c-0.3,0-0.6-0.3-0.7-0.5l-0.3-0.6c-0.1-0.2-0.3-0.2-0.4,0l-0.3,0.6c-0.1,0.2-0.4,0.5-0.7,0.5
				L18.9,8c-0.3,0-0.3,0.2-0.1,0.4l0.5,0.5c0.2,0.2,0.3,0.6,0.3,0.8l-0.1,0.7c0,0.3,0.1,0.4,0.4,0.3L20.4,10.3z"/>
		</g>
		<g>
			<path class="st0" d="M42.7,10.3c0.2-0.1,0.6-0.1,0.9,0l0.6,0.3c0.2,0.1,0.4,0,0.4-0.3l-0.1-0.7c0-0.3,0.1-0.6,0.3-0.8l0.5-0.5
				C45.4,8.2,45.4,8,45.1,8l-0.7-0.1c-0.3,0-0.6-0.3-0.7-0.5l-0.3-0.6c-0.1-0.2-0.3-0.2-0.4,0l-0.3,0.6c-0.1,0.2-0.4,0.5-0.7,0.5
				L41.3,8c-0.3,0-0.3,0.2-0.1,0.4l0.5,0.5c0.2,0.2,0.3,0.6,0.3,0.8l-0.1,0.7c0,0.3,0.1,0.4,0.4,0.3L42.7,10.3z"/>
		</g>
		<g>
			<path class="st0" d="M31.6,8c0.2-0.1,0.6-0.1,0.9,0l1.6,0.9c0.2,0.1,0.4,0,0.4-0.3l-0.3-1.8c0-0.3,0.1-0.6,0.3-0.8l1.3-1.3
				c0.2-0.2,0.1-0.4-0.1-0.4L33.7,4c-0.3,0-0.6-0.3-0.7-0.5l-0.8-1.7c-0.1-0.2-0.3-0.2-0.4,0L31,3.4c-0.1,0.2-0.4,0.5-0.7,0.5
				l-1.8,0.3c-0.3,0-0.3,0.2-0.1,0.4l1.3,1.3c0.2,0.2,0.3,0.6,0.3,0.8l-0.3,1.8c0,0.3,0.1,0.4,0.4,0.3L31.6,8z"/>
		</g>
		<g>
			<path class="st0" d="M49.2,21.4c0.2-0.1,0.6-0.1,0.9,0l1.6,0.9c0.2,0.1,0.4,0,0.4-0.3l-0.3-1.8c0-0.3,0.1-0.6,0.3-0.8l1.3-1.3
				c0.2-0.2,0.1-0.4-0.1-0.4l-1.8-0.3c-0.3,0-0.6-0.3-0.7-0.5l-0.8-1.7c-0.1-0.2-0.3-0.2-0.4,0l-0.8,1.7c-0.1,0.2-0.4,0.5-0.7,0.5
				l-1.8,0.3c-0.3,0-0.3,0.2-0.1,0.4l1.3,1.3c0.2,0.2,0.3,0.6,0.3,0.8L47.3,22c0,0.3,0.1,0.4,0.4,0.3L49.2,21.4z"/>
		</g>
	</g>
	<g>
		<g>
			<path class="st0" d="M12,63.1c-0.3,0-0.5-0.1-0.6-0.2s-0.2-0.3-0.2-0.4v-5.4c0-0.2,0.1-0.3,0.2-0.4s0.4-0.2,0.6-0.2
				c0.2,0,0.4,0.1,0.6,0.2c0.2,0.1,0.2,0.2,0.2,0.4v0.4c0.2-0.3,0.4-0.5,0.7-0.7c0.3-0.2,0.7-0.3,1.1-0.3c0.4,0,0.7,0.1,1.1,0.4
				c0.3,0.3,0.5,0.6,0.7,1c0.2-0.5,0.5-0.8,0.9-1c0.4-0.2,0.8-0.3,1.2-0.3c0.4,0,0.8,0.1,1.2,0.3c0.4,0.2,0.7,0.5,0.9,1
				s0.4,0.9,0.4,1.5v3.3c0,0.1-0.1,0.3-0.3,0.4c-0.2,0.1-0.4,0.2-0.6,0.2c-0.2,0-0.4-0.1-0.6-0.2s-0.3-0.3-0.3-0.4v-3.3
				c0-0.3-0.1-0.5-0.2-0.7c-0.1-0.2-0.2-0.3-0.4-0.4C18.4,58,18.2,58,18,58c-0.2,0-0.3,0-0.5,0.1c-0.2,0.1-0.3,0.2-0.4,0.4
				c-0.1,0.2-0.2,0.4-0.2,0.7v3.3c0,0.2-0.1,0.3-0.3,0.4c-0.2,0.1-0.4,0.1-0.6,0.1c-0.2,0-0.4,0-0.6-0.1c-0.2-0.1-0.3-0.2-0.3-0.4
				v-3.3c0-0.3-0.1-0.5-0.2-0.7c-0.1-0.2-0.2-0.3-0.4-0.4S14.2,58,14,58c-0.2,0-0.4,0-0.5,0.1c-0.2,0.1-0.3,0.2-0.4,0.4
				c-0.1,0.2-0.2,0.4-0.2,0.7v3.3c0,0.1-0.1,0.3-0.3,0.4C12.5,63,12.3,63.1,12,63.1z"/>
			<path class="st0" d="M23.1,55.1c-0.3,0-0.5-0.1-0.7-0.3s-0.3-0.4-0.3-0.6c0-0.2,0.1-0.4,0.3-0.6s0.4-0.3,0.7-0.3
				c0.3,0,0.5,0.1,0.7,0.3s0.3,0.4,0.3,0.6c0,0.2-0.1,0.4-0.3,0.6S23.4,55.1,23.1,55.1z M23.1,63.1c-0.3,0-0.5-0.1-0.6-0.2
				s-0.2-0.3-0.2-0.4v-5.4c0-0.2,0.1-0.3,0.2-0.4s0.4-0.2,0.6-0.2c0.2,0,0.5,0.1,0.6,0.2c0.2,0.1,0.3,0.2,0.3,0.4v5.4
				c0,0.1-0.1,0.3-0.3,0.4C23.6,63,23.4,63.1,23.1,63.1z"/>
			<path class="st0" d="M26.3,55.1c-0.3,0-0.5-0.1-0.7-0.3s-0.3-0.4-0.3-0.6c0-0.2,0.1-0.4,0.3-0.6s0.4-0.3,0.7-0.3
				c0.3,0,0.5,0.1,0.7,0.3s0.3,0.4,0.3,0.6c0,0.2-0.1,0.4-0.3,0.6S26.6,55.1,26.3,55.1z M26.3,63.1c-0.3,0-0.5-0.1-0.6-0.2
				s-0.2-0.3-0.2-0.4v-5.4c0-0.2,0.1-0.3,0.2-0.4s0.4-0.2,0.6-0.2c0.2,0,0.5,0.1,0.6,0.2c0.2,0.1,0.3,0.2,0.3,0.4v5.4
				c0,0.1-0.1,0.3-0.3,0.4C26.8,63,26.5,63.1,26.3,63.1z"/>
			<path class="st0" d="M31.1,63.1c-0.8,0-1.5-0.2-1.9-0.5c-0.4-0.4-0.7-0.9-0.7-1.7v-6.7c0-0.2,0.1-0.3,0.3-0.4
				c0.2-0.1,0.4-0.2,0.6-0.2c0.2,0,0.4,0.1,0.6,0.2c0.2,0.1,0.3,0.2,0.3,0.4v2.4H32c0.1,0,0.3,0.1,0.3,0.2c0.1,0.1,0.1,0.3,0.1,0.4
				c0,0.2,0,0.3-0.1,0.5c-0.1,0.1-0.2,0.2-0.3,0.2h-1.6v3c0,0.3,0.1,0.5,0.2,0.6c0.1,0.1,0.3,0.2,0.6,0.2h0.5c0.3,0,0.4,0.1,0.6,0.2
				c0.1,0.2,0.2,0.3,0.2,0.5c0,0.2-0.1,0.4-0.2,0.5c-0.1,0.2-0.3,0.2-0.6,0.2H31.1z"/>
			<path class="st0" d="M35.5,63.2c-0.5,0-0.9-0.1-1.3-0.2s-0.7-0.3-0.9-0.4S33,62.2,33,62c0-0.1,0-0.2,0.1-0.3s0.1-0.2,0.2-0.3
				c0.1-0.1,0.2-0.1,0.3-0.1c0.1,0,0.3,0.1,0.4,0.2c0.1,0.1,0.3,0.2,0.5,0.3s0.5,0.2,0.9,0.2c0.4,0,0.7-0.1,0.8-0.2
				c0.1-0.1,0.2-0.3,0.2-0.4c0-0.2-0.1-0.4-0.2-0.5c-0.2-0.1-0.4-0.2-0.6-0.3s-0.5-0.1-0.8-0.2S34.2,60.1,34,60s-0.5-0.3-0.6-0.6
				c-0.2-0.2-0.2-0.5-0.2-0.9c0-0.3,0.1-0.7,0.2-1c0.2-0.3,0.4-0.6,0.8-0.8c0.4-0.2,0.8-0.3,1.5-0.3c0.4,0,0.7,0,1.1,0.1
				c0.3,0.1,0.6,0.2,0.8,0.3c0.2,0.1,0.3,0.3,0.3,0.5c0,0.1,0,0.2-0.1,0.3c-0.1,0.1-0.1,0.3-0.2,0.4c-0.1,0.1-0.2,0.2-0.4,0.2
				c-0.1,0-0.2,0-0.4-0.1c-0.1-0.1-0.3-0.1-0.5-0.2c-0.2-0.1-0.4-0.1-0.7-0.1c-0.2,0-0.4,0-0.6,0.1C35,58,34.9,58,34.8,58.1
				c-0.1,0.1-0.1,0.2-0.1,0.3c0,0.2,0.1,0.3,0.2,0.4c0.2,0.1,0.4,0.2,0.6,0.2s0.5,0.1,0.8,0.2c0.3,0.1,0.5,0.2,0.8,0.3
				s0.5,0.3,0.6,0.6c0.2,0.3,0.2,0.6,0.2,1c0,0.6-0.2,1.1-0.7,1.5C36.9,63,36.3,63.2,35.5,63.2z"/>
			<path class="st0" d="M42,63.2c-0.6,0-1.1-0.1-1.5-0.4c-0.5-0.3-0.8-0.6-1.1-1c-0.3-0.4-0.4-0.9-0.4-1.4v-3.3
				c0-0.1,0.1-0.3,0.3-0.4s0.4-0.2,0.6-0.2c0.2,0,0.4,0.1,0.6,0.2c0.2,0.1,0.3,0.2,0.3,0.4v3.3c0,0.2,0.1,0.4,0.2,0.6
				s0.3,0.3,0.4,0.5c0.2,0.1,0.4,0.2,0.6,0.2c0.2,0,0.4-0.1,0.6-0.2c0.2-0.1,0.3-0.3,0.4-0.5c0.1-0.2,0.2-0.4,0.2-0.6v-3.3
				c0-0.1,0.1-0.3,0.3-0.4c0.2-0.1,0.4-0.2,0.6-0.2c0.3,0,0.5,0.1,0.7,0.2c0.2,0.1,0.2,0.2,0.2,0.4v3.3c0,0.5-0.1,1-0.4,1.4
				s-0.6,0.8-1.1,1C43.1,63.1,42.6,63.2,42,63.2z"/>
			<path class="st0" d="M49.3,63.2c-0.6,0-1.1-0.1-1.5-0.4c-0.5-0.3-0.8-0.6-1.1-1c-0.3-0.4-0.4-0.9-0.4-1.4v-3.3
				c0-0.1,0.1-0.3,0.3-0.4s0.4-0.2,0.6-0.2c0.2,0,0.4,0.1,0.6,0.2c0.2,0.1,0.3,0.2,0.3,0.4v3.3c0,0.2,0.1,0.4,0.2,0.6
				s0.3,0.3,0.4,0.5c0.2,0.1,0.4,0.2,0.6,0.2c0.2,0,0.4-0.1,0.6-0.2c0.2-0.1,0.3-0.3,0.4-0.5c0.1-0.2,0.2-0.4,0.2-0.6v-3.3
				c0-0.1,0.1-0.3,0.3-0.4c0.2-0.1,0.4-0.2,0.6-0.2c0.3,0,0.5,0.1,0.7,0.2c0.2,0.1,0.2,0.2,0.2,0.4v3.3c0,0.5-0.1,1-0.4,1.4
				s-0.6,0.8-1.1,1C50.3,63.1,49.8,63.2,49.3,63.2z"/>
		</g>
	</g>
</g>
</svg>
