<?xml version="1.0" encoding="utf-8"?>
<!-- Generator: Adobe Illustrator 24.1.0, SVG Export Plug-In . SVG Version: 6.00 Build 0)  -->
<svg version="1.1" id="Layer_1" xmlns="http://www.w3.org/2000/svg" xmlns:xlink="http://www.w3.org/1999/xlink" x="0px" y="0px"
	 viewBox="0 0 256 75.1" style="enable-background:new 0 0 256 75.1;" xml:space="preserve">
<style type="text/css">
	.st0{fill:#231F20;}
</style>
<g>
	<g>
		<ellipse class="st0" cx="32.4" cy="40" rx="13.4" ry="17.2"/>
	</g>
	<path class="st0" d="M61.3,40.6H50.6c-0.3,11.9-8.3,21.5-18.2,21.5s-17.9-9.6-18.2-21.5H3.5c0,0,0,0,0,0v31.1c0,0,0,0,0,0h57.7
		c0,0,0,0,0,0L61.3,40.6C61.3,40.6,61.3,40.6,61.3,40.6z"/>
	<g>
		<path class="st0" d="M8.2,34.1c0.3-0.2,0.8-0.2,1.2,0l2.2,1.1c0.3,0.2,0.5,0,0.5-0.3l-0.4-2.4c-0.1-0.4,0.1-0.9,0.4-1.1l1.8-1.7
			c0.3-0.3,0.2-0.5-0.2-0.6l-2.4-0.4c-0.4-0.1-0.8-0.4-0.9-0.7L9,25.8c-0.2-0.3-0.4-0.3-0.6,0L7.4,28c-0.2,0.3-0.6,0.6-0.9,0.7
			L4,29.1c-0.4,0.1-0.4,0.3-0.2,0.6l1.8,1.7c0.3,0.3,0.4,0.8,0.4,1.1l-0.4,2.4c-0.1,0.4,0.2,0.5,0.5,0.3L8.2,34.1z"/>
	</g>
	<g>
		<path class="st0" d="M16.9,19.2c0.3-0.2,0.8-0.2,1.2,0l0.8,0.4c0.3,0.2,0.5,0,0.5-0.3l-0.2-0.9c-0.1-0.4,0.1-0.9,0.4-1.1l0.7-0.7
			c0.3-0.3,0.2-0.5-0.2-0.6L19.1,16c-0.4-0.1-0.8-0.4-0.9-0.7l-0.4-0.8c-0.2-0.3-0.4-0.3-0.6,0l-0.4,0.8c-0.2,0.3-0.6,0.6-0.9,0.7
			l-0.9,0.1c-0.4,0.1-0.4,0.3-0.2,0.6l0.7,0.7c0.3,0.3,0.4,0.8,0.4,1.1l-0.2,0.9c-0.1,0.4,0.2,0.5,0.5,0.3L16.9,19.2z"/>
	</g>
	<g>
		<path class="st0" d="M46.8,19.2c0.3-0.2,0.8-0.2,1.2,0l0.8,0.4c0.3,0.2,0.5,0,0.5-0.3l-0.2-0.9c-0.1-0.4,0.1-0.9,0.4-1.1l0.7-0.7
			c0.3-0.3,0.2-0.5-0.2-0.6L49,16c-0.4-0.1-0.8-0.4-0.9-0.7l-0.4-0.8c-0.2-0.3-0.4-0.3-0.6,0l-0.4,0.8c-0.2,0.3-0.6,0.6-0.9,0.7
			l-0.9,0.1c-0.4,0.1-0.4,0.3-0.2,0.6l0.7,0.7c0.3,0.3,0.4,0.8,0.4,1.1l-0.2,0.9c-0.1,0.4,0.2,0.5,0.5,0.3L46.8,19.2z"/>
	</g>
	<g>
		<path class="st0" d="M31.8,16.1c0.3-0.2,0.8-0.2,1.2,0l2.2,1.1c0.3,0.2,0.5,0,0.5-0.3l-0.4-2.4c-0.1-0.4,0.1-0.9,0.4-1.1l1.8-1.7
			c0.3-0.3,0.2-0.5-0.2-0.6l-2.4-0.4c-0.4-0.1-0.8-0.4-0.9-0.7l-1.1-2.2c-0.2-0.3-0.4-0.3-0.6,0L31,10.1c-0.2,0.3-0.6,0.6-0.9,0.7
			l-2.4,0.4c-0.4,0.1-0.4,0.3-0.2,0.6l1.8,1.7c0.3,0.3,0.4,0.8,0.4,1.1l-0.4,2.4c-0.1,0.4,0.2,0.5,0.5,0.3L31.8,16.1z"/>
	</g>
	<g>
		<path class="st0" d="M55.5,34.1c0.3-0.2,0.8-0.2,1.2,0l2.2,1.1c0.3,0.2,0.5,0,0.5-0.3l-0.4-2.4c-0.1-0.4,0.1-0.9,0.4-1.1l1.8-1.7
			c0.3-0.3,0.2-0.5-0.2-0.6l-2.4-0.4c-0.4-0.1-0.8-0.4-0.9-0.7l-1.1-2.2c-0.2-0.3-0.4-0.3-0.6,0L54.7,28c-0.2,0.3-0.6,0.6-0.9,0.7
			l-2.4,0.4c-0.4,0.1-0.4,0.3-0.2,0.6l1.8,1.7c0.3,0.3,0.4,0.8,0.4,1.1l-0.4,2.4c-0.1,0.4,0.2,0.5,0.5,0.3L55.5,34.1z"/>
	</g>
	<g>
		<g>
			<path class="st0" d="M85.4,71.1c-1.1,0-1.9-0.2-2.6-0.7c-0.7-0.5-1-1-1-1.7V46.4c0-0.7,0.3-1.2,1-1.7c0.7-0.4,1.6-0.6,2.6-0.6
				c0.9,0,1.7,0.2,2.3,0.6s0.9,1,0.9,1.7v1.7c0.6-1.1,1.6-2.1,2.9-3c1.3-0.9,2.8-1.3,4.7-1.3c1.6,0,3.1,0.5,4.3,1.6
				c1.3,1.1,2.2,2.4,2.8,4.1c1-1.9,2.3-3.4,3.8-4.3s3.1-1.4,4.8-1.4c1.7,0,3.4,0.4,4.9,1.3c1.5,0.9,2.8,2.2,3.8,3.9s1.5,3.8,1.5,6.3
				v13.5c0,0.6-0.4,1.2-1.1,1.7c-0.7,0.5-1.6,0.7-2.6,0.7c-1,0-1.8-0.2-2.6-0.7c-0.7-0.5-1.1-1-1.1-1.7V55.3c0-1.1-0.2-2.1-0.7-2.8
				c-0.4-0.8-1-1.3-1.7-1.7c-0.7-0.4-1.5-0.6-2.2-0.6c-0.7,0-1.4,0.2-2.1,0.6c-0.7,0.4-1.3,1-1.7,1.7c-0.5,0.8-0.7,1.7-0.7,2.8v13.6
				c0,0.8-0.4,1.4-1.2,1.8c-0.8,0.4-1.6,0.5-2.5,0.5c-0.8,0-1.7-0.2-2.5-0.5c-0.8-0.4-1.2-1-1.2-1.8V55.3c0-1.1-0.2-2-0.7-2.7
				c-0.4-0.8-1-1.3-1.7-1.8c-0.7-0.4-1.5-0.6-2.3-0.6c-0.8,0-1.5,0.2-2.2,0.6c-0.7,0.4-1.2,1-1.7,1.7c-0.4,0.8-0.7,1.7-0.7,2.8v13.5
				c0,0.6-0.4,1.2-1.1,1.7C87.3,70.9,86.5,71.1,85.4,71.1z"/>
			<path class="st0" d="M131.2,38c-1.1,0-2.1-0.4-2.8-1.1c-0.8-0.7-1.2-1.6-1.2-2.5c0-1,0.4-1.8,1.2-2.5c0.8-0.7,1.7-1.1,2.8-1.1
				c1.1,0,2,0.4,2.8,1.1c0.8,0.7,1.2,1.5,1.2,2.5c0,0.9-0.4,1.7-1.2,2.5C133.2,37.7,132.3,38,131.2,38z M131.2,71.1
				c-1.1,0-1.9-0.2-2.6-0.7c-0.7-0.5-1-1-1-1.7V46.4c0-0.7,0.3-1.2,1-1.7c0.7-0.4,1.6-0.6,2.6-0.6c1,0,1.9,0.2,2.6,0.6
				c0.7,0.4,1.1,1,1.1,1.7v22.4c0,0.6-0.4,1.2-1.1,1.7C133.1,70.9,132.2,71.1,131.2,71.1z"/>
			<path class="st0" d="M144.2,38c-1.1,0-2.1-0.4-2.8-1.1c-0.8-0.7-1.2-1.6-1.2-2.5c0-1,0.4-1.8,1.2-2.5c0.8-0.7,1.7-1.1,2.8-1.1
				c1.1,0,2,0.4,2.8,1.1c0.8,0.7,1.2,1.5,1.2,2.5c0,0.9-0.4,1.7-1.2,2.5C146.2,37.7,145.3,38,144.2,38z M144.2,71.1
				c-1.1,0-1.9-0.2-2.6-0.7c-0.7-0.5-1-1-1-1.7V46.4c0-0.7,0.3-1.2,1-1.7c0.7-0.4,1.6-0.6,2.6-0.6c1,0,1.9,0.2,2.6,0.6
				c0.7,0.4,1.1,1,1.1,1.7v22.4c0,0.6-0.4,1.2-1.1,1.7C146.1,70.9,145.2,71.1,144.2,71.1z"/>
			<path class="st0" d="M164,71.1c-3.4,0-6-0.7-7.8-2.2c-1.8-1.5-2.7-3.8-2.7-7.1V34.3c0-0.7,0.4-1.2,1.2-1.7
				c0.8-0.4,1.6-0.6,2.5-0.6c0.9,0,1.8,0.2,2.5,0.6c0.8,0.4,1.2,1,1.2,1.7v9.8h6.7c0.6,0,1.1,0.3,1.4,0.8c0.3,0.6,0.5,1.2,0.5,1.9
				s-0.2,1.3-0.5,1.9c-0.3,0.6-0.8,0.8-1.4,0.8h-6.7v12.4c0,1.1,0.2,1.9,0.7,2.4c0.5,0.5,1.3,0.7,2.5,0.7h2.2c1.1,0,1.9,0.3,2.4,1
				c0.5,0.6,0.8,1.3,0.8,2.1c0,0.8-0.3,1.5-0.8,2.2c-0.5,0.6-1.3,1-2.4,1H164z"/>
			<path class="st0" d="M182,71.7c-1.9,0-3.6-0.2-5.2-0.7c-1.6-0.5-2.8-1.1-3.7-1.9c-0.9-0.8-1.3-1.5-1.3-2.3c0-0.4,0.1-0.9,0.3-1.4
				s0.5-0.9,0.9-1.3c0.4-0.4,0.8-0.6,1.3-0.6c0.5,0,1.1,0.2,1.7,0.7c0.6,0.4,1.3,0.9,2.2,1.3c0.9,0.4,2.1,0.6,3.7,0.6
				c1.7,0,2.8-0.3,3.4-0.8c0.6-0.5,0.8-1.1,0.8-1.7c0-0.8-0.3-1.5-1-1.9s-1.5-0.8-2.5-1.1c-1-0.3-2.1-0.6-3.3-0.9
				c-1.2-0.3-2.3-0.8-3.3-1.3c-1-0.6-1.9-1.3-2.5-2.3s-1-2.2-1-3.8c0-1.4,0.3-2.7,1-4s1.7-2.4,3.2-3.2c1.5-0.9,3.5-1.3,6-1.3
				c1.6,0,3,0.2,4.4,0.5c1.4,0.3,2.5,0.8,3.4,1.3c0.9,0.6,1.3,1.2,1.3,1.9c0,0.3-0.1,0.8-0.3,1.3c-0.2,0.6-0.5,1.1-0.9,1.5
				c-0.4,0.5-0.9,0.7-1.5,0.7c-0.4,0-0.9-0.1-1.5-0.4c-0.6-0.3-1.3-0.6-2-0.8c-0.8-0.3-1.7-0.4-2.7-0.4c-1,0-1.7,0.1-2.3,0.4
				c-0.6,0.3-1,0.6-1.3,1c-0.3,0.4-0.4,0.8-0.4,1.2c0,0.7,0.3,1.2,1,1.6c0.6,0.4,1.5,0.7,2.5,1c1,0.3,2.1,0.6,3.3,0.9
				s2.3,0.8,3.3,1.4c1,0.6,1.9,1.4,2.5,2.5c0.6,1,1,2.4,1,4.1c0,2.5-0.9,4.6-2.7,6.1C188,70.9,185.4,71.7,182,71.7z"/>
			<path class="st0" d="M209.1,71.7c-2.3,0-4.4-0.5-6.2-1.6c-1.9-1.1-3.4-2.5-4.5-4.3c-1.1-1.8-1.7-3.7-1.7-5.7V46.4
				c0-0.6,0.4-1.1,1.1-1.6s1.6-0.7,2.6-0.7c1,0,1.8,0.2,2.6,0.7s1.1,1,1.1,1.6v13.7c0,0.9,0.2,1.7,0.7,2.5c0.5,0.8,1.1,1.4,1.8,1.9
				c0.8,0.5,1.6,0.8,2.5,0.8c0.9,0,1.8-0.2,2.5-0.7c0.7-0.5,1.3-1.1,1.8-1.9c0.5-0.8,0.7-1.6,0.7-2.5V46.4c0-0.6,0.4-1.1,1.1-1.6
				c0.7-0.5,1.6-0.7,2.5-0.7c1.1,0,2,0.2,2.7,0.7c0.7,0.5,1,1,1,1.6v13.7c0,2.1-0.6,4-1.7,5.7c-1.1,1.8-2.6,3.2-4.5,4.2
				C213.3,71.1,211.3,71.7,209.1,71.7z"/>
			<path class="st0" d="M238.9,71.7c-2.3,0-4.4-0.5-6.2-1.6c-1.9-1.1-3.4-2.5-4.5-4.3c-1.1-1.8-1.7-3.7-1.7-5.7V46.4
				c0-0.6,0.4-1.1,1.1-1.6s1.6-0.7,2.6-0.7c1,0,1.8,0.2,2.6,0.7s1.1,1,1.1,1.6v13.7c0,0.9,0.2,1.7,0.7,2.5c0.5,0.8,1.1,1.4,1.8,1.9
				c0.8,0.5,1.6,0.8,2.5,0.8c0.9,0,1.8-0.2,2.5-0.7c0.7-0.5,1.3-1.1,1.8-1.9c0.5-0.8,0.7-1.6,0.7-2.5V46.4c0-0.6,0.4-1.1,1.1-1.6
				c0.7-0.5,1.6-0.7,2.5-0.7c1.1,0,2,0.2,2.7,0.7c0.7,0.5,1,1,1,1.6v13.7c0,2.1-0.6,4-1.7,5.7c-1.1,1.8-2.6,3.2-4.5,4.2
				C243.2,71.1,241.1,71.7,238.9,71.7z"/>
		</g>
	</g>
</g>
</svg>
