<?xml version="1.0" encoding="utf-8"?>
<!-- Generator: Adobe Illustrator 24.1.0, SVG Export Plug-In . SVG Version: 6.00 Build 0)  -->
<svg version="1.1" id="Layer_1" xmlns="http://www.w3.org/2000/svg" xmlns:xlink="http://www.w3.org/1999/xlink" x="0px" y="0px"
	 viewBox="0 0 32 32" style="enable-background:new 0 0 32 32;" xml:space="preserve">
<style type="text/css">
	.st0{fill:#231F20;}
</style>
<g>
	<g>
		<g>
			<ellipse class="st0" cx="16" cy="12.9" rx="4.8" ry="6.2"/>
		</g>
		<path class="st0" d="M26.4,13.1h-3.8c-0.1,4.3-3,7.7-6.5,7.7s-6.4-3.4-6.5-7.7H5.6c0,0,0,0,0,0v11.1c0,0,0,0,0,0h20.7c0,0,0,0,0,0
			L26.4,13.1C26.4,13.1,26.4,13.1,26.4,13.1z"/>
		<g>
			<path class="st0" d="M7.3,10.7c0.1-0.1,0.3-0.1,0.4,0l0.8,0.4c0.1,0.1,0.2,0,0.2-0.1l-0.1-0.9c0-0.1,0-0.3,0.1-0.4l0.6-0.6
				C9.4,9,9.4,9,9.2,8.9L8.3,8.8C8.2,8.8,8.1,8.7,8,8.6L7.6,7.8c-0.1-0.1-0.2-0.1-0.2,0L7,8.6C7,8.7,6.8,8.8,6.7,8.8L5.8,8.9
				C5.7,9,5.6,9,5.7,9.1l0.6,0.6c0.1,0.1,0.2,0.3,0.1,0.4L6.3,11c0,0.1,0.1,0.2,0.2,0.1L7.3,10.7z"/>
		</g>
		<g>
			<path class="st0" d="M10.4,5.4c0.1-0.1,0.3-0.1,0.4,0l0.3,0.2c0.1,0.1,0.2,0,0.2-0.1l-0.1-0.3c0-0.1,0-0.3,0.1-0.4l0.2-0.2
				c0.1-0.1,0.1-0.2-0.1-0.2l-0.3,0c-0.1,0-0.3-0.1-0.3-0.2l-0.1-0.3c-0.1-0.1-0.2-0.1-0.2,0L10.4,4c-0.1,0.1-0.2,0.2-0.3,0.2
				l-0.3,0c-0.1,0-0.2,0.1-0.1,0.2l0.2,0.2C10,4.8,10,5,10,5.1L10,5.4c0,0.1,0.1,0.2,0.2,0.1L10.4,5.4z"/>
		</g>
		<g>
			<path class="st0" d="M21.2,5.4c0.1-0.1,0.3-0.1,0.4,0l0.3,0.2c0.1,0.1,0.2,0,0.2-0.1L22,5.1c0-0.1,0-0.3,0.1-0.4l0.2-0.2
				c0.1-0.1,0.1-0.2-0.1-0.2l-0.3,0c-0.1,0-0.3-0.1-0.3-0.2l-0.1-0.3c-0.1-0.1-0.2-0.1-0.2,0L21.1,4c-0.1,0.1-0.2,0.2-0.3,0.2
				l-0.3,0c-0.1,0-0.2,0.1-0.1,0.2l0.2,0.2c0.1,0.1,0.2,0.3,0.1,0.4l-0.1,0.3c0,0.1,0.1,0.2,0.2,0.1L21.2,5.4z"/>
		</g>
		<g>
			<path class="st0" d="M15.8,4.3c0.1-0.1,0.3-0.1,0.4,0L17,4.7c0.1,0.1,0.2,0,0.2-0.1L17,3.7c0-0.1,0-0.3,0.1-0.4l0.6-0.6
				c0.1-0.1,0.1-0.2-0.1-0.2l-0.9-0.1c-0.1,0-0.3-0.1-0.3-0.2l-0.4-0.8c-0.1-0.1-0.2-0.1-0.2,0l-0.4,0.8c-0.1,0.1-0.2,0.2-0.3,0.2
				l-0.9,0.1c-0.1,0-0.2,0.1-0.1,0.2l0.6,0.6C15,3.4,15,3.6,15,3.7l-0.1,0.9c0,0.1,0.1,0.2,0.2,0.1L15.8,4.3z"/>
		</g>
		<g>
			<path class="st0" d="M24.3,10.7c0.1-0.1,0.3-0.1,0.4,0l0.8,0.4c0.1,0.1,0.2,0,0.2-0.1l-0.1-0.9c0-0.1,0-0.3,0.1-0.4l0.6-0.6
				C26.4,9,26.3,9,26.2,8.9l-0.9-0.1c-0.1,0-0.3-0.1-0.3-0.2l-0.4-0.8c-0.1-0.1-0.2-0.1-0.2,0L24,8.6c-0.1,0.1-0.2,0.2-0.3,0.2
				l-0.9,0.1c-0.1,0-0.2,0.1-0.1,0.2l0.6,0.6c0.1,0.1,0.2,0.3,0.1,0.4L23.3,11c0,0.1,0.1,0.2,0.2,0.1L24.3,10.7z"/>
		</g>
	</g>
	<g>
		<g>
			<path class="st0" d="M6.4,30.8c-0.1,0-0.2,0-0.3-0.1S6,30.6,6,30.5v-2.6c0-0.1,0-0.1,0.1-0.2s0.2-0.1,0.3-0.1
				c0.1,0,0.2,0,0.3,0.1c0.1,0,0.1,0.1,0.1,0.2v0.2C6.9,28,7,27.9,7.1,27.8c0.1-0.1,0.3-0.2,0.6-0.2c0.2,0,0.4,0.1,0.5,0.2
				c0.1,0.1,0.3,0.3,0.3,0.5c0.1-0.2,0.3-0.4,0.4-0.5c0.2-0.1,0.4-0.2,0.6-0.2c0.2,0,0.4,0.1,0.6,0.2c0.2,0.1,0.3,0.3,0.4,0.5
				s0.2,0.4,0.2,0.7v1.6c0,0.1,0,0.1-0.1,0.2c-0.1,0.1-0.2,0.1-0.3,0.1c-0.1,0-0.2,0-0.3-0.1c-0.1-0.1-0.1-0.1-0.1-0.2v-1.6
				c0-0.1,0-0.2-0.1-0.3c-0.1-0.1-0.1-0.2-0.2-0.2c-0.1,0-0.2-0.1-0.3-0.1c-0.1,0-0.2,0-0.2,0.1c-0.1,0-0.1,0.1-0.2,0.2
				c-0.1,0.1-0.1,0.2-0.1,0.3v1.6c0,0.1,0,0.2-0.1,0.2c-0.1,0-0.2,0.1-0.3,0.1c-0.1,0-0.2,0-0.3-0.1c-0.1,0-0.1-0.1-0.1-0.2v-1.6
				c0-0.1,0-0.2-0.1-0.3c-0.1-0.1-0.1-0.2-0.2-0.2s-0.2-0.1-0.3-0.1c-0.1,0-0.2,0-0.3,0.1c-0.1,0-0.1,0.1-0.2,0.2
				c-0.1,0.1-0.1,0.2-0.1,0.3v1.6c0,0.1,0,0.1-0.1,0.2S6.5,30.8,6.4,30.8z"/>
			<path class="st0" d="M11.7,26.9c-0.1,0-0.2,0-0.3-0.1c-0.1-0.1-0.1-0.2-0.1-0.3c0-0.1,0-0.2,0.1-0.3s0.2-0.1,0.3-0.1
				c0.1,0,0.2,0,0.3,0.1s0.1,0.2,0.1,0.3c0,0.1,0,0.2-0.1,0.3C12,26.9,11.9,26.9,11.7,26.9z M11.7,30.8c-0.1,0-0.2,0-0.3-0.1
				s-0.1-0.1-0.1-0.2v-2.6c0-0.1,0-0.1,0.1-0.2s0.2-0.1,0.3-0.1c0.1,0,0.2,0,0.3,0.1s0.1,0.1,0.1,0.2v2.6c0,0.1,0,0.1-0.1,0.2
				S11.9,30.8,11.7,30.8z"/>
			<path class="st0" d="M13.3,26.9c-0.1,0-0.2,0-0.3-0.1c-0.1-0.1-0.1-0.2-0.1-0.3c0-0.1,0-0.2,0.1-0.3s0.2-0.1,0.3-0.1
				c0.1,0,0.2,0,0.3,0.1s0.1,0.2,0.1,0.3c0,0.1,0,0.2-0.1,0.3C13.5,26.9,13.4,26.9,13.3,26.9z M13.3,30.8c-0.1,0-0.2,0-0.3-0.1
				s-0.1-0.1-0.1-0.2v-2.6c0-0.1,0-0.1,0.1-0.2s0.2-0.1,0.3-0.1c0.1,0,0.2,0,0.3,0.1s0.1,0.1,0.1,0.2v2.6c0,0.1,0,0.1-0.1,0.2
				S13.4,30.8,13.3,30.8z"/>
			<path class="st0" d="M15.6,30.8c-0.4,0-0.7-0.1-0.9-0.3c-0.2-0.2-0.3-0.4-0.3-0.8v-3.2c0-0.1,0-0.1,0.1-0.2s0.2-0.1,0.3-0.1
				c0.1,0,0.2,0,0.3,0.1s0.1,0.1,0.1,0.2v1.1H16c0.1,0,0.1,0,0.2,0.1c0,0.1,0.1,0.1,0.1,0.2c0,0.1,0,0.2-0.1,0.2
				c0,0.1-0.1,0.1-0.2,0.1h-0.8v1.5c0,0.1,0,0.2,0.1,0.3s0.2,0.1,0.3,0.1h0.3c0.1,0,0.2,0,0.3,0.1c0.1,0.1,0.1,0.2,0.1,0.2
				c0,0.1,0,0.2-0.1,0.3c-0.1,0.1-0.2,0.1-0.3,0.1H15.6z"/>
			<path class="st0" d="M17.7,30.9c-0.2,0-0.4,0-0.6-0.1c-0.2-0.1-0.3-0.1-0.4-0.2c-0.1-0.1-0.2-0.2-0.2-0.3c0,0,0-0.1,0-0.2
				s0.1-0.1,0.1-0.2c0,0,0.1-0.1,0.1-0.1c0.1,0,0.1,0,0.2,0.1c0.1,0.1,0.2,0.1,0.3,0.1s0.2,0.1,0.4,0.1c0.2,0,0.3,0,0.4-0.1
				c0.1-0.1,0.1-0.1,0.1-0.2c0-0.1,0-0.2-0.1-0.2c-0.1-0.1-0.2-0.1-0.3-0.1c-0.1,0-0.2-0.1-0.4-0.1c-0.1,0-0.3-0.1-0.4-0.2
				c-0.1-0.1-0.2-0.2-0.3-0.3c-0.1-0.1-0.1-0.3-0.1-0.4c0-0.2,0-0.3,0.1-0.5c0.1-0.2,0.2-0.3,0.4-0.4c0.2-0.1,0.4-0.1,0.7-0.1
				c0.2,0,0.4,0,0.5,0.1c0.2,0,0.3,0.1,0.4,0.2c0.1,0.1,0.2,0.1,0.2,0.2c0,0,0,0.1,0,0.2c0,0.1-0.1,0.1-0.1,0.2s-0.1,0.1-0.2,0.1
				c0,0-0.1,0-0.2,0c-0.1,0-0.1-0.1-0.2-0.1c-0.1,0-0.2,0-0.3,0c-0.1,0-0.2,0-0.3,0c-0.1,0-0.1,0.1-0.1,0.1c0,0,0,0.1,0,0.1
				c0,0.1,0,0.1,0.1,0.2c0.1,0,0.2,0.1,0.3,0.1c0.1,0,0.2,0.1,0.4,0.1c0.1,0,0.3,0.1,0.4,0.2s0.2,0.2,0.3,0.3s0.1,0.3,0.1,0.5
				c0,0.3-0.1,0.5-0.3,0.7C18.4,30.8,18.1,30.9,17.7,30.9z"/>
			<path class="st0" d="M20.8,30.9c-0.3,0-0.5-0.1-0.7-0.2c-0.2-0.1-0.4-0.3-0.5-0.5c-0.1-0.2-0.2-0.4-0.2-0.7v-1.6
				c0-0.1,0-0.1,0.1-0.2c0.1-0.1,0.2-0.1,0.3-0.1s0.2,0,0.3,0.1s0.1,0.1,0.1,0.2v1.6c0,0.1,0,0.2,0.1,0.3c0.1,0.1,0.1,0.2,0.2,0.2
				c0.1,0.1,0.2,0.1,0.3,0.1c0.1,0,0.2,0,0.3-0.1s0.2-0.1,0.2-0.2c0.1-0.1,0.1-0.2,0.1-0.3v-1.6c0-0.1,0-0.1,0.1-0.2
				c0.1-0.1,0.2-0.1,0.3-0.1c0.1,0,0.2,0,0.3,0.1c0.1,0.1,0.1,0.1,0.1,0.2v1.6c0,0.2-0.1,0.5-0.2,0.7s-0.3,0.4-0.5,0.5
				C21.3,30.8,21.1,30.9,20.8,30.9z"/>
			<path class="st0" d="M24.3,30.9c-0.3,0-0.5-0.1-0.7-0.2c-0.2-0.1-0.4-0.3-0.5-0.5c-0.1-0.2-0.2-0.4-0.2-0.7v-1.6
				c0-0.1,0-0.1,0.1-0.2c0.1-0.1,0.2-0.1,0.3-0.1s0.2,0,0.3,0.1s0.1,0.1,0.1,0.2v1.6c0,0.1,0,0.2,0.1,0.3c0.1,0.1,0.1,0.2,0.2,0.2
				c0.1,0.1,0.2,0.1,0.3,0.1c0.1,0,0.2,0,0.3-0.1s0.2-0.1,0.2-0.2c0.1-0.1,0.1-0.2,0.1-0.3v-1.6c0-0.1,0-0.1,0.1-0.2
				c0.1-0.1,0.2-0.1,0.3-0.1c0.1,0,0.2,0,0.3,0.1c0.1,0.1,0.1,0.1,0.1,0.2v1.6c0,0.2-0.1,0.5-0.2,0.7s-0.3,0.4-0.5,0.5
				C24.8,30.8,24.6,30.9,24.3,30.9z"/>
		</g>
	</g>
</g>
</svg>
